<svg width="24" height="24" viewBox="0 0 24 24" fill="none" xmlns="http://www.w3.org/2000/svg">
<circle cx="12" cy="12" r="11.5" fill="#363636" stroke="white"/>
<path d="M11.25 16.6667C11.25 17.0809 11.5858 17.4167 12 17.4167C12.4142 17.4167 12.75 17.0809 12.75 16.6667H11.25ZM12.75 7.33337C12.75 6.91916 12.4142 6.58337 12 6.58337C11.5858 6.58337 11.25 6.91916 11.25 7.33337H12.75ZM12.75 16.6667V7.33337H11.25V16.6667H12.75Z" fill="white"/>
<path d="M7.33317 11.2507C6.91896 11.2507 6.58317 11.5865 6.58317 12.0007C6.58317 12.4149 6.91896 12.7507 7.33317 12.7507L7.33317 11.2507ZM16.6665 12.7507C17.0807 12.7507 17.4165 12.4149 17.4165 12.0007C17.4165 11.5865 17.0807 11.2507 16.6665 11.2507L16.6665 12.7507ZM7.33317 12.7507L16.6665 12.7507L16.6665 11.2507L7.33317 11.2507L7.33317 12.7507Z" fill="white"/>
</svg>
