<svg width="24" height="24" viewBox="0 0 24 24" fill="none" xmlns="http://www.w3.org/2000/svg">
<circle cx="12" cy="12" r="11.5" fill="#363636" stroke="white"/>
<path d="M8.16981 14.7695C7.87692 15.0624 7.87692 15.5373 8.16981 15.8302C8.4627 16.1231 8.93758 16.1231 9.23047 15.8302L8.16981 14.7695ZM15.8301 9.23053C16.123 8.93763 16.123 8.46276 15.8301 8.16987C15.5372 7.87697 15.0624 7.87697 14.7695 8.16987L15.8301 9.23053ZM9.23047 15.8302L15.8301 9.23053L14.7695 8.16987L8.16981 14.7695L9.23047 15.8302Z" fill="white"/>
<path d="M9.2295 8.1703C8.9366 7.87741 8.46173 7.87741 8.16884 8.1703C7.87594 8.46319 7.87594 8.93807 8.16883 9.23096L9.2295 8.1703ZM14.7685 15.8306C15.0614 16.1235 15.5363 16.1235 15.8292 15.8306C16.1221 15.5377 16.1221 15.0629 15.8292 14.77L14.7685 15.8306ZM8.16883 9.23096L14.7685 15.8306L15.8292 14.77L9.2295 8.1703L8.16883 9.23096Z" fill="white"/>
</svg>
