<svg width="24" height="18" viewBox="0 0 24 18" fill="none" xmlns="http://www.w3.org/2000/svg">
<path d="M0 0H24V18H0V0Z" fill="#DE2910"/>
<path d="M2.91248 6.68699L4.50006 1.79999L6.08764 6.68699L1.92969 3.66299H7.07042L2.91248 6.68699Z" fill="#FFDE00"/>
<path d="M9.90816 1.8791L8.23881 2.26245L9.36415 0.97121L9.21189 2.67822L8.33112 1.2083L9.90816 1.8791Z" fill="#FFDE00"/>
<path d="M11.5943 4.01337L9.90696 3.71927L11.445 2.96556L10.6426 4.4799L10.4009 2.78343L11.5943 4.01337Z" fill="#FFDE00"/>
<path d="M11.354 7.00966L9.93334 6.05294L11.645 5.99206L10.2948 7.04746L10.766 5.39992L11.354 7.00966Z" fill="#FFDE00"/>
<path d="M9.23567 8.97071L8.29474 7.53951L9.89713 8.14447L8.24405 8.59648L9.31499 7.25876L9.23567 8.97071Z" fill="#FFDE00"/>
</svg>
