<svg width="24" height="18" viewBox="0 0 24 18" fill="none" xmlns="http://www.w3.org/2000/svg">
<path fill-rule="evenodd" clip-rule="evenodd" d="M0 0H24V18H0V0Z" fill="#003399"/>
<path d="M11.9984 2.8125L12.1994 3.43138H12.8529L12.3266 3.8141L12.5247 4.43364L11.9984 4.05093L11.4722 4.43364L11.6732 3.81443L11.1469 3.43171H11.7974L11.9984 2.8125ZM9.31242 3.52942L9.51342 4.14831H10.1668L9.64059 4.53103L9.8387 5.15057L9.31242 4.76785L8.78614 5.15057L8.98717 4.53135L8.46092 4.14864H9.11142L9.31242 3.52942ZM7.34267 5.50096L7.54368 6.11985H8.19709L7.67084 6.50257L7.86895 7.12211L7.34267 6.73939L6.81639 7.12211L7.01742 6.50289L6.49117 6.12018H7.14167L7.34267 5.50096ZM6.6264 8.1894L6.8274 8.80831H7.48082L6.95457 9.19106L7.15268 9.8106L6.6264 9.42785L6.10012 9.8106L6.30115 9.19133L5.7749 8.80864H6.4254L6.6264 8.1894ZM7.34267 10.8779L7.54368 11.4968H8.19709L7.67084 11.8795L7.86895 12.499L7.34267 12.1163L6.81639 12.499L7.01742 11.8798L6.49117 11.4971H7.14167L7.34267 10.8779ZM9.31242 12.8494L9.51342 13.4683H10.1668L9.64059 13.851L9.8387 14.4706L9.31242 14.0879L8.78614 14.4706L8.98717 13.8514L8.46092 13.4686H9.11142L9.31242 12.8494ZM14.6845 3.52942L14.8855 4.14831H15.5389L15.0126 4.53103L15.2107 5.15057L14.6845 4.76785L14.1581 5.15057L14.3592 4.53135L13.833 4.14864H14.4834L14.6845 3.52942ZM16.6542 5.50096L16.8552 6.11985H17.5086L16.9824 6.50257L17.1805 7.12211L16.6542 6.73939L16.1279 7.12211L16.329 6.50289L15.8027 6.12018H16.4532L16.6542 5.50096ZM17.3705 8.18943L17.5715 8.80831H18.2249L17.6987 9.19106L17.8968 9.8106L17.3705 9.42785L16.8442 9.8106L17.0452 9.19133L16.519 8.80864H17.1695L17.3705 8.18943ZM16.6542 10.8779L16.8552 11.4968H17.5086L16.9824 11.8795L17.1805 12.499L16.6542 12.1163L16.1279 12.499L16.329 11.8798L15.8027 11.4971H16.4532L16.6542 10.8779ZM11.9984 13.5664L12.1994 14.1853H12.8529L12.3266 14.568L12.5247 15.1875L11.9984 14.8048L11.4722 15.1875L11.6732 14.5683L11.1469 14.1856H11.7974L11.9984 13.5664ZM14.6845 12.8494L14.8855 13.4683H15.5389L15.0126 13.851L15.2108 14.4706L14.6845 14.0879L14.1582 14.4706L14.3592 13.8513L13.833 13.4686H14.4835L14.6845 12.8494Z" fill="#FFCC00"/>
</svg>
