<svg width="24" height="18" viewBox="0 0 24 18" fill="none" xmlns="http://www.w3.org/2000/svg">
<path fill-rule="evenodd" clip-rule="evenodd" d="M0 0H24V18H0V0Z" fill="#F31930"/>
<path fill-rule="evenodd" clip-rule="evenodd" d="M15.2614 9.28022C15.2614 11.7633 13.2137 13.7761 10.6875 13.7761C8.16138 13.7761 6.11377 11.7632 6.11377 9.28018C6.11377 6.79715 8.16149 4.7843 10.6876 4.7843C13.2136 4.7843 15.2614 6.79719 15.2614 9.28018L15.2614 9.28022Z" fill="white"/>
<path fill-rule="evenodd" clip-rule="evenodd" d="M15.4904 9.28C15.4904 11.2664 13.8522 12.8766 11.8314 12.8766C9.81055 12.8766 8.17236 11.2664 8.17236 9.28C8.17236 7.29363 9.81058 5.68338 11.8314 5.68338C13.8522 5.68338 15.4904 7.29363 15.4904 9.28Z" fill="#F31830"/>
<path fill-rule="evenodd" clip-rule="evenodd" d="M16.1523 7.17993L16.1154 8.84186L14.5649 9.26279L16.0933 9.80707L16.0564 11.3311L17.0531 10.141L18.5593 10.6635L17.6881 9.38624L18.7513 8.11619L17.1195 8.56612L16.1523 7.17997L16.1523 7.17993Z" fill="white"/>
</svg>
