<svg width="24" height="18" viewBox="0 0 24 18" fill="none" xmlns="http://www.w3.org/2000/svg">
<g clip-path="url(#clip0_145_2071)">
<path fill-rule="evenodd" clip-rule="evenodd" d="M0 0H34.2004V1.38463H0V0ZM0 2.76926H34.2004V4.15389H0V2.76926ZM0 5.53852H34.2004V6.92314H0V5.53852ZM0 8.30777H34.2004V9.6924H0V8.30777ZM0 11.077H34.2004V12.4617H0V11.077ZM0 13.8463H34.2004V15.2309H0V13.8463ZM0 16.6155H34.2004V18.0002H0V16.6155Z" fill="#BD3D44"/>
<path fill-rule="evenodd" clip-rule="evenodd" d="M0 1.38464H34.2004V2.76927H0V1.38464ZM0 4.1539H34.2004V5.53853H0V4.1539ZM0 6.92316H34.2004V8.30779H0V6.92316ZM0 9.69242H34.2004V11.077H0V9.69242ZM0 12.4617H34.2004V13.8463H0V12.4617ZM0 15.2309H34.2004V16.6156H0V15.2309Z" fill="white"/>
<path fill-rule="evenodd" clip-rule="evenodd" d="M0 0H13.68V9.69223H0V0Z" fill="#192F5D"/>
<path fill-rule="evenodd" clip-rule="evenodd" d="M1.14007 0.414856L1.26452 0.797918H1.66734L1.34144 1.0347L1.46593 1.41776L1.14003 1.18102L0.814203 1.41776L0.938656 1.0347L0.612793 0.797918H1.01558L1.14007 0.414856ZM3.42005 0.414856L3.54454 0.797918H3.94736L3.62146 1.0347L3.74595 1.41776L3.42005 1.18102L3.09423 1.41776L3.21868 1.0347L2.89282 0.797918H3.2956L3.42005 0.414856ZM5.70015 0.414856L5.8246 0.797918H6.22742L5.90152 1.0347L6.02601 1.41776L5.70015 1.18102L5.37428 1.41776L5.49874 1.0347L5.17287 0.797918H5.57569L5.70015 0.414856ZM7.9801 0.414856L8.10455 0.797918H8.50734L8.18148 1.0347L8.30593 1.41776L7.9801 1.18102L7.6542 1.41776L7.77869 1.0347L7.45279 0.797918H7.85561L7.9801 0.414856ZM10.2602 0.414856L10.3846 0.797918H10.7874L10.4615 1.0347L10.586 1.41776L10.2601 1.18102L9.9343 1.41776L10.0587 1.0347L9.73289 0.797918H10.1357L10.2602 0.414856ZM12.5402 0.414856L12.6647 0.797918H13.0675L12.7416 1.0347L12.8661 1.41776L12.5402 1.18102L12.2143 1.41776L12.3388 1.0347L12.0129 0.797918H12.4158L12.5402 0.414856ZM2.28011 1.38411L2.40457 1.76718H2.80739L2.48149 2.00392L2.60601 2.38702L2.28011 2.15027L1.95425 2.38702L2.0787 2.00392L1.75284 1.76718H2.15566L2.28011 1.38411ZM4.56007 1.38411L4.68452 1.76718H5.0873L4.76144 2.00392L4.88589 2.38702L4.56007 2.15027L4.23417 2.38702L4.35866 2.00392L4.03276 1.76718H4.43558L4.56007 1.38411ZM6.84012 1.38411L6.96458 1.76718H7.3674L7.0415 2.00392L7.16599 2.38702L6.84009 2.15027L6.51426 2.38702L6.63871 2.00392L6.31285 1.76718H6.71564L6.84012 1.38411ZM9.12018 1.38411L9.24464 1.76718H9.64746L9.32156 2.00392L9.44605 2.38702L9.12018 2.15027L8.79428 2.38702L8.91884 2.00392L8.59294 1.76718H8.99576L9.12018 1.38411ZM11.4001 1.38411L11.5246 1.76718H11.9274L11.6015 2.00392L11.726 2.38702L11.4001 2.15027L11.0742 2.38702L11.1987 2.00392L10.8728 1.76718H11.2756L11.4001 1.38411ZM1.14007 2.35334L1.26452 2.7364H1.66734L1.34144 2.97318L1.46593 3.35624L1.14003 3.1195L0.814203 3.35624L0.938656 2.97318L0.612793 2.7364H1.01558L1.14007 2.35334ZM3.42005 2.35334L3.54454 2.7364H3.94736L3.62146 2.97318L3.74595 3.35624L3.42005 3.1195L3.09423 3.35624L3.21868 2.97318L2.89282 2.7364H3.2956L3.42005 2.35334ZM5.70015 2.35334L5.8246 2.7364H6.22742L5.90152 2.97318L6.02601 3.35624L5.70015 3.1195L5.37428 3.35624L5.49874 2.97318L5.17287 2.7364H5.57569L5.70015 2.35334ZM7.9801 2.35334L8.10455 2.7364H8.50734L8.18148 2.97318L8.30593 3.35624L7.9801 3.1195L7.6542 3.35624L7.77869 2.97318L7.45279 2.7364H7.85561L7.9801 2.35334ZM10.2602 2.35334L10.3846 2.7364H10.7874L10.4615 2.97318L10.586 3.35624L10.2601 3.1195L9.9343 3.35624L10.0587 2.97318L9.73289 2.7364H10.1357L10.2602 2.35334ZM12.5402 2.35334L12.6647 2.7364H13.0675L12.7416 2.97318L12.8661 3.35624L12.5402 3.1195L12.2143 3.35624L12.3388 2.97318L12.0129 2.7364H12.4158L12.5402 2.35334ZM2.28011 3.32256L2.40457 3.70566H2.80739L2.48149 3.9424L2.60601 4.3255L2.28011 4.08875L1.95425 4.3255L2.0787 3.9424L1.75284 3.70566H2.15566L2.28011 3.32256ZM4.56007 3.32256L4.68452 3.70566H5.0873L4.76144 3.9424L4.88589 4.3255L4.56007 4.08875L4.23417 4.3255L4.35866 3.9424L4.03276 3.70566H4.43558L4.56007 3.32256ZM6.84012 3.32256L6.96458 3.70566H7.3674L7.0415 3.9424L7.16599 4.3255L6.84009 4.08875L6.51426 4.3255L6.63871 3.9424L6.31285 3.70566H6.71564L6.84012 3.32256ZM9.12018 3.32256L9.24464 3.70566H9.64746L9.32156 3.9424L9.44605 4.3255L9.12018 4.08875L8.79428 4.3255L8.91881 3.9424L8.59291 3.70566H8.99573L9.12018 3.32256ZM11.4001 3.32256L11.5246 3.70566H11.9274L11.6015 3.9424L11.726 4.3255L11.4001 4.08875L11.0742 4.3255L11.1987 3.9424L10.8728 3.70566H11.2756L11.4001 3.32256ZM1.14007 4.29182L1.26452 4.67488H1.66734L1.34144 4.91166L1.46593 5.29472L1.14003 5.05798L0.814203 5.29472L0.938656 4.91166L0.612793 4.67488H1.01558L1.14007 4.29182ZM3.42005 4.29182L3.54454 4.67488H3.94736L3.62146 4.91166L3.74595 5.29472L3.42005 5.05798L3.09423 5.29472L3.21868 4.91166L2.89282 4.67488H3.2956L3.42005 4.29182ZM5.70015 4.29182L5.8246 4.67488H6.22742L5.90152 4.91166L6.02601 5.29472L5.70015 5.05798L5.37428 5.29472L5.49874 4.91166L5.17287 4.67488H5.57569L5.70015 4.29182ZM7.9801 4.29182L8.10455 4.67488H8.50734L8.18148 4.91166L8.30593 5.29472L7.9801 5.05798L7.6542 5.29472L7.77869 4.91166L7.45279 4.67488H7.85561L7.9801 4.29182ZM10.2602 4.29182L10.3846 4.67488H10.7874L10.4615 4.91166L10.586 5.29472L10.2601 5.05798L9.9343 5.29472L10.0587 4.91166L9.73289 4.67488H10.1357L10.2602 4.29182ZM12.5402 4.29182L12.6647 4.67488H13.0675L12.7416 4.91166L12.8661 5.29472L12.5402 5.05798L12.2143 5.29472L12.3388 4.91166L12.0129 4.67488H12.4158L12.5402 4.29182ZM2.28011 5.26104L2.40457 5.64414H2.80739L2.48149 5.88088L2.60601 6.26398L2.28011 6.02724L1.95425 6.26398L2.0787 5.88088L1.75284 5.64414H2.15566L2.28011 5.26104ZM4.56007 5.26104L4.68452 5.64414H5.0873L4.76144 5.88088L4.88589 6.26398L4.56007 6.02724L4.23417 6.26398L4.35866 5.88088L4.03276 5.64414H4.43558L4.56007 5.26104ZM6.84012 5.26104L6.96458 5.64414H7.3674L7.0415 5.88088L7.16599 6.26398L6.84009 6.02724L6.51426 6.26398L6.63871 5.88088L6.31285 5.64414H6.71564L6.84012 5.26104ZM9.12018 5.26104L9.24464 5.64414H9.64746L9.32156 5.88088L9.44605 6.26398L9.12018 6.02724L8.79428 6.26398L8.91881 5.88088L8.59291 5.64414H8.99573L9.12018 5.26104ZM11.4001 5.26104L11.5246 5.64414H11.9274L11.6015 5.88088L11.726 6.26398L11.4001 6.02724L11.0742 6.26398L11.1987 5.88088L10.8728 5.64414H11.2756L11.4001 5.26104ZM1.14007 6.2303L1.26452 6.61336H1.66734L1.34144 6.85014L1.46593 7.2332L1.14003 6.99646L0.814203 7.2332L0.938656 6.85014L0.612793 6.61336H1.01558L1.14007 6.2303ZM3.42005 6.2303L3.54454 6.61336H3.94736L3.62146 6.85014L3.74595 7.2332L3.42005 6.99646L3.09423 7.2332L3.21868 6.85014L2.89282 6.61336H3.2956L3.42005 6.2303ZM5.70015 6.2303L5.8246 6.61336H6.22742L5.90152 6.85014L6.02601 7.2332L5.70015 6.99646L5.37428 7.2332L5.49874 6.85014L5.17287 6.61336H5.57569L5.70015 6.2303ZM7.9801 6.2303L8.10455 6.61336H8.50734L8.18148 6.85014L8.30593 7.2332L7.9801 6.99646L7.6542 7.2332L7.77869 6.85014L7.45279 6.61336H7.85561L7.9801 6.2303ZM10.2602 6.2303L10.3846 6.61336H10.7874L10.4615 6.85014L10.586 7.2332L10.2601 6.99646L9.9343 7.2332L10.0587 6.85014L9.73289 6.61336H10.1357L10.2602 6.2303ZM12.5402 6.2303L12.6647 6.61336H13.0675L12.7416 6.85014L12.8661 7.2332L12.5402 6.99646L12.2143 7.2332L12.3388 6.85014L12.0129 6.61336H12.4158L12.5402 6.2303ZM2.28011 7.19952L2.40457 7.58262H2.80739L2.48149 7.81936L2.60601 8.20246L2.28011 7.96572L1.95425 8.20246L2.0787 7.81936L1.75284 7.58262H2.15566L2.28011 7.19952ZM4.56007 7.19952L4.68452 7.58262H5.0873L4.76144 7.81936L4.88589 8.20246L4.56007 7.96572L4.23417 8.20246L4.35866 7.81936L4.03276 7.58262H4.43558L4.56007 7.19952ZM6.84012 7.19952L6.96458 7.58262H7.3674L7.0415 7.81936L7.16599 8.20246L6.84009 7.96572L6.51426 8.20246L6.63871 7.81936L6.31285 7.58262H6.71564L6.84012 7.19952ZM9.12018 7.19952L9.24464 7.58262H9.64746L9.32156 7.81936L9.44605 8.20246L9.12018 7.96572L8.79428 8.20246L8.91881 7.81936L8.59291 7.58262H8.99573L9.12018 7.19952ZM11.4001 7.19952L11.5246 7.58262H11.9274L11.6015 7.81936L11.726 8.20246L11.4001 7.96572L11.0742 8.20246L11.1987 7.81936L10.8728 7.58262H11.2756L11.4001 7.19952ZM1.14007 8.16878L1.26452 8.55184H1.66734L1.34144 8.78862L1.46593 9.17168L1.14003 8.93494L0.814203 9.17168L0.938656 8.78862L0.612793 8.55184H1.01558L1.14007 8.16878ZM3.42005 8.16878L3.54454 8.55184H3.94736L3.62146 8.78862L3.74595 9.17168L3.42005 8.93494L3.09423 9.17168L3.21868 8.78862L2.89282 8.55184H3.2956L3.42005 8.16878ZM5.70015 8.16878L5.8246 8.55184H6.22742L5.90152 8.78862L6.02601 9.17168L5.70015 8.93494L5.37428 9.17168L5.49874 8.78862L5.17287 8.55184H5.57569L5.70015 8.16878ZM7.9801 8.16878L8.10455 8.55184H8.50734L8.18148 8.78862L8.30593 9.17168L7.9801 8.93494L7.6542 9.17168L7.77869 8.78862L7.45279 8.55184H7.85561L7.9801 8.16878ZM10.2602 8.16878L10.3846 8.55184H10.7874L10.4615 8.78862L10.586 9.17168L10.2601 8.93494L9.9343 9.17168L10.0587 8.78862L9.73289 8.55184H10.1357L10.2602 8.16878ZM12.5402 8.16878L12.6647 8.55184H13.0675L12.7416 8.78862L12.8661 9.17168L12.5402 8.93494L12.2143 9.17168L12.3388 8.78862L12.0129 8.55184H12.4158L12.5402 8.16878Z" fill="white"/>
</g>
<defs>
<clipPath id="clip0_145_2071">
<rect width="24" height="18" fill="white"/>
</clipPath>
</defs>
</svg>
